<?xml version="1.0" encoding="UTF-8"?>
<svg id="Capa_2" data-name="Capa 2" xmlns="http://www.w3.org/2000/svg" viewBox="0 0 321.7 399.24">
  <defs>
    <style>
      .cls-1 {
        fill: #efe3dc;
      }

      .cls-2 {
        stroke: #dccdc5;
        stroke-width: 3px;
      }

      .cls-2, .cls-3 {
        fill: none;
        stroke-miterlimit: 10;
      }

      .cls-4 {
        fill: #f4b387;
      }

      .cls-5 {
        fill: #012437;
      }

      .cls-3 {
        stroke: #a44e2a;
        stroke-linecap: round;
        stroke-width: 4px;
      }

      .cls-6 {
        fill: #eb9e62;
      }

      .cls-7 {
        fill: #46332e;
      }

      .cls-8 {
        fill: #21212e;
      }

      .cls-9 {
        fill: #db824c;
      }
    </style>
  </defs>
  <g id="Capa_1-2" data-name="Capa 1">
    <g>
      <path class="cls-1" d="M114.13,285.12h93.45c62.99,0,114.13,51.14,114.13,114.13H0C0,336.25,51.14,285.12,114.13,285.12Z"/>
      <path class="cls-2" d="M210.78,285.12s22.49,65.7-51.51,65.7c-74,0-52.18-65.7-52.18-65.7"/>
      <rect class="cls-1" x="49.97" y="342.18" width="43.7" height="8.64"/>
    </g>
    <g>
      <path class="cls-8" d="M137.79,193.7h16.62v76.21h-44.33v-48.5c0-15.29,12.42-27.71,27.71-27.71Z" transform="translate(264.49 463.6) rotate(180)"/>
      <path class="cls-8" d="M167.04,193.7h44.33v76.21h-16.62c-15.29,0-27.71-12.42-27.71-27.71v-48.5h0Z"/>
    </g>
    <path class="cls-8" d="M273.23,22.95v8.68c0,9.31-7.55,16.86-16.87,16.86h-17.65v87.22H85.07V32.22h-6.12l-3.79,4.85-.1-.13-2.52,3,.23.18,2.39-3.05,4.13,5.09-13.1,10.62-2.16-2.67-7.24,8.65c-5.98,7.14-16.62,8.08-23.76,2.1l20.17-24.09-5.61-6.92c-5.87-7.23-4.76-17.85,2.47-23.72h.01l14.19,17.5,13.41-17.15c5.74-7.34,16.34-8.64,23.68-2.9l-15.15,19.37h187.03Z"/>
    <g>
      <rect class="cls-9" x="121" y="186.15" width="78.59" height="138.31" rx="36.3" ry="36.3"/>
      <rect class="cls-6" x="81.71" y="59.09" width="156.4" height="200.41" rx="78.2" ry="78.2"/>
    </g>
    <rect id="ojo_izquierdo" data-name="ojo izquierdo" class="cls-8" x="114.13" y="138.28" width="18.95" height="22.87" rx="9.47" ry="9.47"/>
    <rect id="ojo_derecho" data-name="ojo derecho" class="cls-8" x="186.73" y="138.28" width="18.95" height="22.87" rx="9.47" ry="9.47"/>
    <rect id="ceja_izquierda" data-name="ceja izquierda" class="cls-8" x="103.24" y="113.97" width="37.51" height="10.33" rx="5.16" ry="5.16"/>
    <rect id="ceja_derecha" data-name="ceja derecha" class="cls-8" x="176.06" y="113.97" width="37.51" height="10.33" rx="5.16" ry="5.16"/>
    <rect class="cls-4" x="101.35" y="171.91" width="25.56" height="6.06" rx="3.03" ry="3.03"/>
    <g>
      <path class="cls-8" d="M159.99,190.06h0v24.8h-24.8c0-13.69,11.11-24.8,24.8-24.8Z"/>
      <path class="cls-8" d="M163.97,190.06h24.8v24.8h0c-13.69,0-24.8-11.11-24.8-24.8h0Z" transform="translate(352.74 404.91) rotate(-180)"/>
    </g>
    <rect class="cls-4" x="192.9" y="171.91" width="25.56" height="6.06" rx="3.03" ry="3.03"/>
    <rect class="cls-9" x="146.44" y="162.96" width="27.74" height="38.31" rx="12.64" ry="12.64"/>
    <g id="oreja">
      <g>
        <path class="cls-6" d="M71.22,163.65c0,6.13,4.97,11.1,11.1,11.1v17.76c-11.46,0-20.76-10.88-20.76-24.29s9.3-24.29,20.76-24.29v8.62c-6.13,0-11.1,4.96-11.1,11.09Z"/>
        <path class="cls-9" d="M82.32,152.55v22.2c-6.13,0-11.1-4.97-11.1-11.1s4.97-11.09,11.1-11.09Z"/>
        <circle class="cls-5" cx="77.83" cy="183.18" r="3.88"/>
      </g>
      <g>
        <path class="cls-6" d="M248.46,163.73c-.14,6.13-5.22,10.99-11.35,10.84l-.41,17.76c11.46.26,21.01-10.4,21.31-23.81.31-13.41-8.74-24.5-20.2-24.76l-.2,8.62c6.13.14,10.99,5.22,10.84,11.35Z"/>
        <path class="cls-9" d="M237.62,152.38l-.51,22.19c6.13.14,11.21-4.72,11.35-10.84.14-6.13-4.72-11.21-10.84-11.35Z"/>
        <circle class="cls-5" cx="241.41" cy="183.1" r="3.88"/>
      </g>
    </g>
    <polygon class="cls-8" points="75.74 36.12 75.06 36.94 71.54 32.6 75.74 36.12"/>
    <polygon class="cls-8" points="75.16 37.07 72.77 40.12 72.54 39.94 75.06 36.94 75.16 37.07"/>
    <polygon class="cls-8" points="75.16 37.07 72.77 40.12 72.54 39.94 75.06 36.94 75.16 37.07"/>
    <polygon class="cls-8" points="75.74 36.12 75.06 36.94 71.54 32.6 75.74 36.12"/>
    <g>
      <path class="cls-8" d="M145.56,30.81h7.51v96.87h-35.22V58.52c0-15.29,12.42-27.71,27.71-27.71Z" transform="translate(255.56 -21.78) rotate(109.6)"/>
      <path class="cls-8" d="M197.7,21.39h7.51v96.87h-35.22V49.1c0-15.29,12.42-27.71,27.71-27.71Z" transform="translate(341.88 -57.73) rotate(120)"/>
    </g>
    <rect class="cls-7" x="153.42" y="32.35" width="41.53" height="9.18" rx="4.59" ry="4.59"/>
    <g>
      <path class="cls-8" d="M255.93,42.84h0v103.96h-3.69c-13.26,0-24.02-10.76-24.02-24.02v-52.23c0-15.29,12.42-27.71,27.71-27.71Z" transform="translate(484.15 189.64) rotate(-180)"/>
      <rect class="cls-7" x="222.89" y="84.02" width="41.53" height="9.18" rx="4.59" ry="4.59" transform="translate(155.05 332.26) rotate(-90)"/>
    </g>
    <g>
      <path class="cls-8" d="M89.02,32.22v113.07c-15.31,0-27.71-10.76-27.71-24.03V32.22h27.71Z"/>
      <rect class="cls-7" x="50.45" y="107.5" width="41.53" height="9.18" rx="4.59" ry="4.59" transform="translate(-40.87 183.3) rotate(-90)"/>
    </g>
    <rect class="cls-7" x="135.46" y="46.41" width="41.53" height="9.18" rx="4.59" ry="4.59"/>
    <path id="risa" class="cls-3" d="M153.9,223.24h15.03c6.03,0,22.47-4.54,22.47-10.58"/>
    <path id="chivo" class="cls-8" d="M191.39,253.24c0,2.19-.89,4.17-2.32,5.61-1.44,1.43-3.42,2.32-5.61,2.32h-5.1v16.03c0,3.46-2.8,6.27-6.26,6.27h-17.09c-3.46,0-6.26-2.81-6.26-6.27v-16.03h-4.27c-4.38,0-7.94-3.55-7.94-7.93,0-2.19.89-4.17,2.33-5.61,1.44-1.43,3.42-2.32,5.61-2.32h4.27v-4.86c0-3.45,2.8-6.26,6.26-6.26h17.09c3.46,0,6.26,2.81,6.26,6.26v4.86h5.1c4.38,0,7.93,3.55,7.93,7.93Z"/>
  </g>
</svg>